<svg width="34" height="17" viewBox="0 0 34 17" fill="none" xmlns="http://www.w3.org/2000/svg">
<path fill-rule="evenodd" clip-rule="evenodd" d="M8.63587 15.4609C7.93979 16.1672 6.81138 16.1672 6.11547 15.4609L0.652462 9.9168C-0.217487 9.034 -0.217487 7.60251 0.652462 6.71971L6.08028 1.21138C6.77619 0.505062 7.9046 0.505062 8.60051 1.21138C9.29659 1.91769 9.29659 3.06281 8.60051 3.76912L4.1179 8.31816L8.63587 12.9031C9.33178 13.6094 9.33178 14.7545 8.63587 15.4609Z" fill="white"/>
<path fill-rule="evenodd" clip-rule="evenodd" d="M24.4614 15.5507C25.1573 16.257 26.2857 16.257 26.9818 15.5507L32.4447 10.0066C33.3147 9.12384 33.3147 7.69235 32.4447 6.80955L27.017 1.30122C26.3211 0.594906 25.1927 0.594906 24.4966 1.30122C23.8007 2.00754 23.8007 3.15265 24.4966 3.85897L28.9792 8.40801L24.4614 12.993C23.7655 13.6993 23.7655 14.8444 24.4614 15.5507Z" fill="white"/>
<path fill-rule="evenodd" clip-rule="evenodd" d="M11.894 16.4038C11.0385 15.9025 10.7424 14.7974 11.2328 13.9356L18.65 0.898049C19.1403 0.0360711 20.2312 -0.256224 21.0869 0.245056C21.9424 0.746335 22.2385 1.85141 21.7481 2.71321L14.3309 15.751C13.8406 16.6128 12.7495 16.9051 11.894 16.4038Z" fill="white"/>
</svg>
