<svg width="24" height="24" viewBox="0 0 24 24" fill="none" xmlns="http://www.w3.org/2000/svg">
<path d="M12.0001 1C9.52012 1 7.50012 3.02 7.50012 5.5V13C7.50012 13.105 7.50488 13.2096 7.50988 13.3096L8.25012 12.5703V12.5693L8.87512 11.9453L15.0001 5.82031V5.81934L15.7247 5.09473L16.3751 4.44531C15.9001 2.47031 14.1151 1 12.0001 1ZM21.2355 1.99316C21.0407 1.99884 20.8558 2.0801 20.7198 2.21973L2.21984 20.7197C2.14786 20.7888 2.0904 20.8716 2.05081 20.9632C2.01122 21.0548 1.99031 21.1534 1.9893 21.2532C1.98828 21.3529 2.00719 21.4519 2.0449 21.5443C2.08262 21.6367 2.13839 21.7206 2.20895 21.7912C2.27951 21.8617 2.36344 21.9175 2.45582 21.9552C2.5482 21.9929 2.64718 22.0118 2.74696 22.0108C2.84674 22.0098 2.94531 21.9889 3.03691 21.9493C3.1285 21.9097 3.21128 21.8523 3.28039 21.7803L6.73352 18.3271C7.92051 19.5034 9.49793 20.2817 11.2501 20.457V22.75C11.2487 22.8494 11.2671 22.9481 11.3041 23.0403C11.3412 23.1325 11.3962 23.2164 11.466 23.2872C11.5358 23.358 11.6189 23.4142 11.7106 23.4526C11.8023 23.4909 11.9007 23.5107 12.0001 23.5107C12.0995 23.5107 12.1979 23.4909 12.2896 23.4526C12.3813 23.4142 12.4645 23.358 12.5342 23.2872C12.604 23.2164 12.659 23.1325 12.6961 23.0403C12.7332 22.9481 12.7515 22.8494 12.7501 22.75V20.4619C16.5343 20.0842 19.5001 16.8818 19.5001 13V11.25C19.5001 10.835 19.1651 10.5 18.7501 10.5C18.3351 10.5 18.0001 10.835 18.0001 11.25V13C18.0001 16.28 15.3577 18.947 12.089 18.9951C12.0805 18.994 12.0721 18.993 12.0636 18.9922C12.0386 18.99 12.0135 18.989 11.9884 18.9893C11.9633 18.9896 11.9382 18.9913 11.9132 18.9941C11.9119 18.9945 11.9106 18.9948 11.9093 18.9951C11.909 18.9951 11.9086 18.9951 11.9083 18.9951C10.3051 18.9707 8.85396 18.3169 7.79309 17.2676L8.85656 16.2041C9.669 17.0014 10.775 17.5 12.0001 17.5C14.4801 17.5 16.5001 15.48 16.5001 13V8.56055L21.7804 3.28027C21.8886 3.1749 21.9625 3.03931 21.9923 2.89126C22.0222 2.7432 22.0067 2.58958 21.9478 2.4505C21.8889 2.31141 21.7894 2.19335 21.6623 2.11175C21.5352 2.03015 21.3864 1.98882 21.2355 1.99316ZM5.25012 10.5C4.83512 10.5 4.50012 10.835 4.50012 11.25V13C4.50012 13.985 4.69027 14.9252 5.03527 15.7852L6.21984 14.5996C6.07484 14.0896 6.00012 13.555 6.00012 13V11.25C6.00012 10.835 5.66512 10.5 5.25012 10.5Z" fill="#EF4444"/>
</svg>
