<svg width="24" height="24" viewBox="0 0 24 24" fill="none" xmlns="http://www.w3.org/2000/svg">
<path d="M15.744 2.02344C14.2645 2.02344 12.785 2.58494 11.6619 3.70801L2.31526 13.0547C2.21929 13.1468 2.14267 13.2572 2.08989 13.3793C2.0371 13.5015 2.00922 13.6329 2.00786 13.7659C2.00651 13.899 2.03172 14.0309 2.08201 14.1541C2.1323 14.2773 2.20666 14.3892 2.30074 14.4833C2.39481 14.5774 2.50672 14.6517 2.62989 14.702C2.75307 14.7523 2.88504 14.7775 3.01808 14.7761C3.15112 14.7748 3.28256 14.7469 3.40468 14.6941C3.52681 14.6413 3.63718 14.5647 3.72933 14.4688L13.076 5.12207C14.5579 3.6402 16.9301 3.6402 18.412 5.12207C19.8938 6.60394 19.8938 8.97614 18.412 10.458L9.40414 19.4658C8.68184 20.1881 7.54049 20.1881 6.8182 19.4658C6.0959 18.7435 6.0959 17.6022 6.8182 16.8799L13.9901 9.70801C14.0861 9.61586 14.1627 9.50549 14.2155 9.38336C14.2682 9.26124 14.2961 9.1298 14.2975 8.99676C14.2988 8.86372 14.2736 8.73175 14.2233 8.60857C14.1731 8.48539 14.0987 8.37349 14.0046 8.27941C13.9105 8.18533 13.7986 8.11097 13.6754 8.06068C13.5523 8.01039 13.4203 7.98519 13.2873 7.98654C13.1542 7.98789 13.0228 8.01578 12.9007 8.06857C12.7785 8.12135 12.6682 8.19797 12.576 8.29395L5.40413 15.4658C3.91743 16.9525 3.91743 19.3932 5.40413 20.8799C6.89084 22.3666 9.3315 22.3666 10.8182 20.8799L19.826 11.8721C22.0722 9.62594 22.0722 5.95414 19.826 3.70801C18.703 2.58494 17.2235 2.02344 15.744 2.02344Z" fill="#9CA3AF"/>
</svg>
