<svg width="150" height="150" viewBox="0 0 150 150" fill="none" xmlns="http://www.w3.org/2000/svg">
<circle cx="75" cy="75" r="75" fill="#29CC61"/>
<path d="M96.1875 88.375H111.812C111.312 94.3333 109.646 99.6458 106.812 104.312C103.979 108.938 100 112.583 94.875 115.25C89.75 117.917 83.5208 119.25 76.1875 119.25C70.5625 119.25 65.5 118.25 61 116.25C56.5 114.208 52.6458 111.333 49.4375 107.625C46.2292 103.875 43.7708 99.3542 42.0625 94.0625C40.3958 88.7708 39.5625 82.8542 39.5625 76.3125V68.75C39.5625 62.2083 40.4167 56.2917 42.125 51C43.875 45.7083 46.375 41.1875 49.625 37.4375C52.875 33.6458 56.7708 30.75 61.3125 28.75C65.8958 26.75 71.0417 25.75 76.75 25.75C84 25.75 90.125 27.0833 95.125 29.75C100.125 32.4167 104 36.1042 106.75 40.8125C109.542 45.5208 111.25 50.9167 111.875 57H96.25C95.8333 53.0833 94.9167 49.7292 93.5 46.9375C92.125 44.1458 90.0833 42.0208 87.375 40.5625C84.6667 39.0625 81.125 38.3125 76.75 38.3125C73.1667 38.3125 70.0417 38.9792 67.375 40.3125C64.7083 41.6458 62.4792 43.6042 60.6875 46.1875C58.8958 48.7708 57.5417 51.9583 56.625 55.75C55.75 59.5 55.3125 63.7917 55.3125 68.625V76.3125C55.3125 80.8958 55.7083 85.0625 56.5 88.8125C57.3333 92.5208 58.5833 95.7083 60.25 98.375C61.9583 101.042 64.125 103.104 66.75 104.562C69.375 106.021 72.5208 106.75 76.1875 106.75C80.6458 106.75 84.25 106.042 87 104.625C89.7917 103.208 91.8958 101.146 93.3125 98.4375C94.7708 95.6875 95.7292 92.3333 96.1875 88.375Z" fill="white"/>
</svg>
