<svg width="25" height="25" viewBox="0 0 25 25" fill="none" xmlns="http://www.w3.org/2000/svg">
<path d="M11.277 18.4307L6.05064 13.0724L20.635 13.2536C21.187 13.2605 21.6405 12.8181 21.6474 12.2661C21.6542 11.7141 21.2118 11.2606 20.6599 11.2538L6.07549 11.0725L11.4338 5.84571C11.6312 5.65315 11.7319 5.39838 11.7351 5.1424C11.7383 4.88642 11.644 4.62923 11.4509 4.43181C11.0653 4.03649 10.4323 4.02863 10.037 4.41425L2.95059 11.3267C2.55527 11.7119 2.5474 12.3458 2.93302 12.7406L9.84551 19.8271C10.2311 20.2224 10.8641 20.2302 11.2594 19.8446C11.6547 19.4595 11.6626 18.8256 11.277 18.4307Z" fill="#495057"/>
</svg>
