<svg width="203" height="24" viewBox="0 0 203 24" fill="none" xmlns="http://www.w3.org/2000/svg">
<path d="M16.3906 8.25C16.0156 5.75 14.0781 4.21875 11.4531 4.21875C7.92188 4.21875 5.60938 6.9375 5.60938 11.6875C5.60938 16.5625 7.95312 19.1562 11.4219 19.1562C14.0156 19.1562 15.9219 17.7188 16.3906 15.2812L21.1406 15.3125C20.6094 19.5 17.1094 23.3125 11.3594 23.3125C5.29688 23.3125 0.828125 19.0625 0.828125 11.6875C0.828125 4.3125 5.39062 0.0625 11.3594 0.0625C16.5781 0.0625 20.5156 3.0625 21.1406 8.25H16.3906ZM44.6406 11.6875C44.6406 19.0625 40.0469 23.3125 34.0781 23.3125C28.0469 23.3125 23.4844 19.0312 23.4844 11.6875C23.4844 4.3125 28.0469 0.0625 34.0781 0.0625C40.0469 0.0625 44.6406 4.3125 44.6406 11.6875ZM39.8594 11.6875C39.8594 6.84375 37.5781 4.21875 34.0781 4.21875C30.5781 4.21875 28.2656 6.84375 28.2656 11.6875C28.2656 16.5312 30.5781 19.1562 34.0781 19.1562C37.5781 19.1562 39.8594 16.5312 39.8594 11.6875ZM55.4844 23H47.5156V0.375H55.5781C62.3906 0.375 66.5469 4.625 66.5469 11.6562C66.5469 18.75 62.3906 23 55.4844 23ZM52.2031 18.9688H55.2969C59.6094 18.9688 61.8594 16.7188 61.8594 11.6562C61.8594 6.625 59.6094 4.40625 55.3281 4.40625H52.2031V18.9688ZM69.4531 23V0.375H84.6406V4.25H74.1406V9.75H83.8594V13.625H74.1406V19.125H84.6719V23H69.4531ZM91.7656 0.375L97.2656 17.625H97.4844L103.016 0.375H108.203L100.391 23H94.3594L86.5156 0.375H91.7656ZM110.266 23V0.375H125.453V4.25H114.953V9.75H124.672V13.625H114.953V19.125H125.484V23H110.266ZM128.609 23V0.375H133.297V19.125H143.047V23H128.609ZM165.391 11.6875C165.391 19.0625 160.797 23.3125 154.828 23.3125C148.797 23.3125 144.234 19.0312 144.234 11.6875C144.234 4.3125 148.797 0.0625 154.828 0.0625C160.797 0.0625 165.391 4.3125 165.391 11.6875ZM160.609 11.6875C160.609 6.84375 158.328 4.21875 154.828 4.21875C151.328 4.21875 149.016 6.84375 149.016 11.6875C149.016 16.5312 151.328 19.1562 154.828 19.1562C158.328 19.1562 160.609 16.5312 160.609 11.6875ZM168.266 23V0.375H177.141C182.297 0.375 185.234 3.53125 185.234 8C185.234 12.5312 182.234 15.625 177.016 15.625H172.953V23H168.266ZM172.953 11.8438H176.266C179.047 11.8438 180.391 10.2812 180.391 8C180.391 5.75 179.047 4.21875 176.266 4.21875H172.953V11.8438ZM187.703 23V0.375H202.891V4.25H192.391V9.75H202.109V13.625H192.391V19.125H202.922V23H187.703Z" fill="#29CC61"/>
</svg>
