<svg width="157" height="30" viewBox="0 0 157 30" fill="none" xmlns="http://www.w3.org/2000/svg">
<path d="M1.16767 14.711C1.16767 13.451 1.43767 12.173 1.97767 10.877C2.51767 9.563 3.28267 8.348 4.27267 7.232C5.26267 6.116 6.54967 5.207 8.13367 4.505C9.73567 3.785 11.3827 3.425 13.0747 3.425C14.7847 3.425 16.1167 3.74 17.0707 4.37C18.0427 5 18.5287 5.873 18.5287 6.989C18.5287 8.105 18.1597 8.978 17.4217 9.608C16.7017 10.22 15.8737 10.526 14.9377 10.526C14.0017 10.526 13.1557 10.328 12.3997 9.932C11.6617 9.518 11.0677 8.933 10.6177 8.177C9.64567 8.645 8.80867 9.563 8.10667 10.931C7.40467 12.299 7.05367 13.676 7.05367 15.062C7.05367 16.43 7.27867 17.519 7.72867 18.329C8.17867 19.121 8.81767 19.517 9.64567 19.517C10.4737 19.517 11.2027 19.094 11.8327 18.248C12.4807 17.402 12.8047 16.385 12.8047 15.197C14.6227 15.197 15.9187 15.341 16.6927 15.629C17.4847 15.917 17.8807 16.538 17.8807 17.492C17.8807 18.986 17.0707 20.39 15.4507 21.704C13.8307 23.018 11.7967 23.675 9.34867 23.675C6.90067 23.675 4.92067 22.919 3.40867 21.407C1.91467 19.895 1.16767 17.663 1.16767 14.711ZM32.5043 8.852C33.5123 8.852 34.3763 9.257 35.0963 10.067C35.8343 10.877 36.2033 12.056 36.2033 13.604C36.2033 15.134 35.9333 16.556 35.3933 17.87C34.8533 19.166 34.1423 20.228 33.2603 21.056C32.3783 21.884 31.3793 22.532 30.2633 23C29.1473 23.45 28.0043 23.675 26.8343 23.675C24.4763 23.675 22.6133 23.027 21.2453 21.731C19.8773 20.435 19.1933 18.716 19.1933 16.574C19.1933 13.676 20.1203 11.327 21.9743 9.527C23.8463 7.709 26.2223 6.8 29.1023 6.8C29.7503 6.8 30.3983 6.872 31.0463 7.016C31.2443 7.61 31.3523 8.285 31.3703 9.041C31.7483 8.915 32.1263 8.852 32.5043 8.852ZM29.1833 12.605C29.1833 12.101 29.3003 11.534 29.5343 10.904C29.7863 10.274 30.1823 9.77 30.7223 9.392C28.3463 9.896 26.7083 10.859 25.8083 12.281C25.0343 13.505 24.6473 14.765 24.6473 16.061C24.6473 17.357 24.9083 18.401 25.4303 19.193C25.9703 19.967 26.6543 20.354 27.4823 20.354C29.3183 20.354 30.6143 19.157 31.3703 16.763C29.9123 15.863 29.1833 14.477 29.1833 12.605ZM48.1331 21.029L47.8631 20.894C46.4591 22.748 44.7851 23.675 42.8411 23.675C41.4011 23.675 40.1771 23.108 39.1691 21.974C38.1791 20.822 37.6841 19.274 37.6841 17.33C37.6841 14.918 38.5301 12.722 40.2221 10.742C41.0501 9.77 42.1571 8.987 43.5431 8.393C44.9291 7.781 46.4771 7.475 48.1871 7.475C48.5111 7.475 49.0871 7.511 49.9151 7.583C49.9511 7.205 50.0321 6.746 50.1581 6.206L48.6461 4.046C50.8961 2.732 52.6691 2.075 53.9651 2.075C54.7031 2.075 55.2251 2.228 55.5311 2.534C55.8371 2.822 55.9901 3.38 55.9901 4.208C55.9901 5.018 55.5851 7.322 54.7751 11.12C53.9831 14.918 53.5871 17.618 53.5871 19.22C53.5871 20.804 53.8661 21.848 54.4241 22.352C53.4161 23.234 52.3631 23.675 51.2651 23.675C50.1851 23.675 49.3931 23.405 48.8891 22.865C48.3851 22.307 48.1331 21.695 48.1331 21.029ZM42.7601 16.304C42.7601 17.33 43.0211 18.14 43.5431 18.734C44.0831 19.328 44.7491 19.625 45.5411 19.625C46.5671 19.625 47.5031 19.139 48.3491 18.167C48.6371 14.963 49.0421 12.191 49.5641 9.851C47.4941 9.851 45.8381 10.517 44.5961 11.849C43.3721 13.181 42.7601 14.666 42.7601 16.304ZM64.7934 23.675C62.3274 23.675 60.4194 23.036 59.0694 21.758C57.7374 20.48 57.0714 18.752 57.0714 16.574C57.0714 13.676 58.0614 11.327 60.0414 9.527C62.0394 7.709 64.5414 6.8 67.5474 6.8C69.2214 6.8 70.4904 7.178 71.3544 7.934C72.2184 8.672 72.6504 9.653 72.6504 10.877C72.6504 12.551 71.8314 13.946 70.1934 15.062C68.5734 16.16 66.0624 16.718 62.6604 16.736C62.7144 17.888 62.9754 18.797 63.4434 19.463C63.9114 20.111 64.4964 20.435 65.1984 20.435C65.9004 20.435 66.5034 20.201 67.0074 19.733C67.5294 19.265 67.7904 18.5 67.7904 17.438C70.4184 17.438 71.7324 18.059 71.7324 19.301C71.7324 20.363 71.0844 21.362 69.7884 22.298C68.4924 23.216 66.8274 23.675 64.7934 23.675ZM67.0884 9.959C66.1704 9.959 65.3244 10.418 64.5504 11.336C63.7944 12.254 63.2454 13.334 62.9034 14.576C64.7034 14.432 66.0534 14.027 66.9534 13.361C67.8714 12.677 68.3304 11.957 68.3304 11.201C68.3304 10.841 68.2134 10.544 67.9794 10.31C67.7634 10.076 67.4664 9.959 67.0884 9.959ZM75.3565 20.03C75.3565 20.03 75.3925 17.555 75.4645 12.605C75.4645 10.517 74.9785 8.969 74.0065 7.961C74.9425 7.187 75.9685 6.8 77.0845 6.8C78.5425 6.8 79.5325 7.448 80.0545 8.744C80.5045 9.86 80.7295 11.552 80.7295 13.82C80.7295 16.07 80.6845 18.257 80.5945 20.381H81.5125C84.2485 14.639 85.6165 10.904 85.6165 9.176C85.6165 8.762 85.5355 8.357 85.3735 7.961C86.7055 7.187 87.9115 6.8 88.9915 6.8C90.3955 6.8 91.0975 7.646 91.0975 9.338C91.0975 10.112 90.8995 11.084 90.5035 12.254C90.1075 13.406 89.4955 14.9 88.6675 16.736C87.8575 18.554 87.4345 19.499 87.3985 19.571L87.7495 21.137C86.9935 21.821 85.9135 22.415 84.5095 22.919C83.1055 23.423 81.6205 23.675 80.0545 23.675C78.4885 23.675 77.3095 23.396 76.5175 22.838C75.7435 22.262 75.3565 21.326 75.3565 20.03ZM99.9029 23.675C97.4369 23.675 95.5289 23.036 94.1789 21.758C92.8469 20.48 92.1809 18.752 92.1809 16.574C92.1809 13.676 93.1709 11.327 95.1509 9.527C97.1489 7.709 99.6509 6.8 102.657 6.8C104.331 6.8 105.6 7.178 106.464 7.934C107.328 8.672 107.76 9.653 107.76 10.877C107.76 12.551 106.941 13.946 105.303 15.062C103.683 16.16 101.172 16.718 97.7699 16.736C97.8239 17.888 98.0849 18.797 98.5529 19.463C99.0209 20.111 99.6059 20.435 100.308 20.435C101.01 20.435 101.613 20.201 102.117 19.733C102.639 19.265 102.9 18.5 102.9 17.438C105.528 17.438 106.842 18.059 106.842 19.301C106.842 20.363 106.194 21.362 104.898 22.298C103.602 23.216 101.937 23.675 99.9029 23.675ZM102.198 9.959C101.28 9.959 100.434 10.418 99.6599 11.336C98.9039 12.254 98.3549 13.334 98.0129 14.576C99.8129 14.432 101.163 14.027 102.063 13.361C102.981 12.677 103.44 11.957 103.44 11.201C103.44 10.841 103.323 10.544 103.089 10.31C102.873 10.076 102.576 9.959 102.198 9.959ZM111.924 6.206L110.412 4.046C112.662 2.732 114.435 2.075 115.731 2.075C116.469 2.075 116.991 2.228 117.297 2.534C117.603 2.822 117.756 3.38 117.756 4.208C117.756 5.018 117.351 7.322 116.541 11.12C115.749 14.918 115.353 17.582 115.353 19.112C115.353 20.642 115.632 21.722 116.19 22.352C114.93 23.234 113.787 23.675 112.761 23.675C111.735 23.675 110.979 23.342 110.493 22.676C110.025 21.992 109.791 21.056 109.791 19.868C109.791 18.68 110.124 16.25 110.79 12.578C111.456 8.906 111.834 6.782 111.924 6.206ZM132.006 8.852C133.014 8.852 133.878 9.257 134.598 10.067C135.336 10.877 135.705 12.056 135.705 13.604C135.705 15.134 135.435 16.556 134.895 17.87C134.355 19.166 133.644 20.228 132.762 21.056C131.88 21.884 130.881 22.532 129.765 23C128.649 23.45 127.506 23.675 126.336 23.675C123.978 23.675 122.115 23.027 120.747 21.731C119.379 20.435 118.695 18.716 118.695 16.574C118.695 13.676 119.622 11.327 121.476 9.527C123.348 7.709 125.724 6.8 128.604 6.8C129.252 6.8 129.9 6.872 130.548 7.016C130.746 7.61 130.854 8.285 130.872 9.041C131.25 8.915 131.628 8.852 132.006 8.852ZM128.685 12.605C128.685 12.101 128.802 11.534 129.036 10.904C129.288 10.274 129.684 9.77 130.224 9.392C127.848 9.896 126.21 10.859 125.31 12.281C124.536 13.505 124.149 14.765 124.149 16.061C124.149 17.357 124.41 18.401 124.932 19.193C125.472 19.967 126.156 20.354 126.984 20.354C128.82 20.354 130.116 19.157 130.872 16.763C129.414 15.863 128.685 14.477 128.685 12.605ZM140.452 28.373C139.336 28.373 138.553 28.094 138.103 27.536C137.671 26.996 137.455 26.204 137.455 25.16C137.455 24.134 137.671 22.055 138.103 18.923C138.553 15.791 138.985 13.118 139.399 10.904L137.887 8.744C139.003 8.096 139.966 7.61 140.776 7.286C141.586 6.944 142.387 6.773 143.179 6.773C144.475 6.773 145.123 7.628 145.123 9.338C145.123 9.572 145.087 10.049 145.015 10.769L145.285 10.904C145.807 9.608 146.563 8.6 147.553 7.88C148.543 7.142 149.704 6.773 151.036 6.773C152.386 6.773 153.457 7.385 154.249 8.609C155.041 9.815 155.437 11.318 155.437 13.118C155.437 15.53 154.591 17.726 152.899 19.706C152.071 20.678 150.964 21.47 149.578 22.082C148.192 22.676 146.644 22.973 144.934 22.973C144.412 22.973 143.728 22.928 142.882 22.838C142.828 23.468 142.801 24.053 142.801 24.593C142.801 25.745 143.08 26.564 143.638 27.05C142.63 27.932 141.568 28.373 140.452 28.373ZM143.989 17.195L143.368 20.327C145.546 20.273 147.283 19.562 148.579 18.194C149.893 16.808 150.55 15.296 150.55 13.658C150.55 12.812 150.379 12.137 150.037 11.633C149.713 11.111 149.236 10.85 148.606 10.85C146.374 10.85 144.835 12.965 143.989 17.195Z" fill="#39C5BB"/>
</svg>
